<?xml version="1.0" encoding="UTF-8"?>
<svg width="49px" height="38px" viewBox="0 0 49 38" version="1.1" xmlns="http://www.w3.org/2000/svg" xmlns:xlink="http://www.w3.org/1999/xlink">
    <!-- Generator: Sketch 51.1 (57501) - http://www.bohemiancoding.com/sketch -->
    <title>arrows-left</title>
    <desc>Created with Sketch.</desc>
    <defs></defs>
    <g id="Page-1" stroke="none" stroke-width="1" fill="none" fill-rule="evenodd">
        <g id="arrows-left" fill="#2C274D" fill-rule="nonzero">
            <path d="M48.77,20.07 C48.77,20.01 48.83,19.96 48.86,19.9 C48.89,19.84 48.86,19.78 48.92,19.72 C48.98,19.66 48.92,19.6 48.97,19.53 C49.02,19.46 48.97,19.41 48.97,19.34 C48.97,19.27 48.97,19.21 48.97,19.14 C48.97,19.07 49,19 49,19 C49,19 49,18.86 49,18.8 C49,18.74 49,18.69 49,18.63 C48.9834961,18.5623341 48.9634688,18.4955764 48.94,18.43 C48.94,18.38 48.89,18.32 48.86,18.27 C48.8300927,18.2049218 48.7967113,18.1414971 48.76,18.08 L48.65,17.94 C48.65,17.89 48.58,17.84 48.53,17.79 L32.13,0.61 C31.3535468,-0.145773914 30.1164532,-0.145773914 29.34,0.61 C28.9644459,0.985136514 28.7534267,1.4941815 28.7534267,2.025 C28.7534267,2.5558185 28.9644459,3.06486349 29.34,3.44 L42.25,17 L2,17 C0.8954305,17 1.3527075e-16,17.8954305 0,19 C-1.3527075e-16,20.1045695 0.8954305,21 2,21 L42.48,21 L29.34,34.6 C28.9644459,34.9751365 28.7534267,35.4841815 28.7534267,36.015 C28.7534267,36.5458185 28.9644459,37.0548635 29.34,37.43 C29.7069275,37.805673 30.2098657,38.0174748 30.735,38.0174748 C31.2601343,38.0174748 31.7630725,37.805673 32.13,37.43 L48.44,20.54 C48.44,20.54 48.52,20.44 48.56,20.39 L48.68,20.24 C48.7127092,20.1848096 48.742744,20.1280774 48.77,20.07 Z" id="Icon-2" transform="translate(24.500000, 19.030322) scale(-1, 1) translate(-24.500000, -19.030322) "></path>
        </g>
    </g>
</svg>